# xmcd
#
# Track frame offsets: 
#        150
#        21382
#        36870
#        52255
#        74465
#        88875
#        105732
#        121752
#        143332
#        162907
#        180932
#        199097
#
# Disc length: 2857 seconds
#
# Revision: 3
# Processed by: cddbd v1.5.2PL0 Copyright (c) Steve Scherf et al.
# Submitted via: ExactAudioCopy v1.0b3
#
DISCID=a30b270c
DTITLE=Dolly - Dolly
DYEAR=1997
DGENRE=Rock
TTITLE0=Je n'veux pas rester sage
TTITLE1=Quand l'herbe nous devore
TTITLE2=Fin d'epoque
TTITLE3=Les mots
TTITLE4=Joe
TTITLE5=Partir seule
TTITLE6=Killing time
TTITLE7=Garde moi
TTITLE8=Si nous deposions les armes
TTITLE9=Monde sauvage
TTITLE10=J'attends
TTITLE11=Love and money
EXTD=
EXTT0=
EXTT1=
EXTT2=
EXTT3=
EXTT4=
EXTT5=
EXTT6=
EXTT7=
EXTT8=
EXTT9=
EXTT10=
EXTT11=
PLAYORDER=
